 
http://www.imdb.com/title/tt1288558/


Plot: Five friends head to a remote cabin, where the discovery of a Book of the Dead leads them to unwittingly summon up demons living in the nearby woods. The evil presence possesses them until only one is left to fight for survival. 



Director:
 Fede Alvarez 

Writers:
 Fede Alvarez (screenplay), Sam Raimi, 1 more credit ┬╗ 

Stars:
 Jane Levy, Shiloh Fernandez, Jessica Lucas

Genres:
  Horror 

Country:
 USA 

Language:
 English 


File is .rmvb format



Format                                   : RealMedia
File size                                : 299 MiB
Duration                                 : 51mn 24s
Overall bit rate                         : 796 Kbps

Video
ID                                       : 1
Format                                   : RealVideo 4
Codec ID                                 : RV40
Codec ID/Info                            : Based on AVC (H.264), Real Player 9
Duration                                 : 51mn 24s
Bit rate                                 : 732 Kbps
Width                                    : 1 136 pixels
Height                                   : 464 pixels
Display aspect ratio                     : 2.40:1
Frame rate                               : 25.000 fps
Bits/(Pixel*Frame)                       : 0.056
Stream size                              : 269 MiB (90%)

Audio
ID                                       : 0
Format                                   : Cooker
Codec ID                                 : cook
Codec ID/Info                            : Based on G.722.1, Real Player 6
Duration                                 : 51mn 25s
Bit rate                                 : 64.1 Kbps
Channel(s)                               : 2 channels
Sampling rate                            : 44.1 KHz
Bit depth                                : 16 bits
Stream size                              : 23.6 MiB (8%)



Format                                   : RealMedia
File size                                : 133 MiB
Duration                                 : 30mn 8s
Overall bit rate                         : 603 Kbps

Video
ID                                       : 1
Format                                   : RealVideo 4
Codec ID                                 : RV40
Codec ID/Info                            : Based on AVC (H.264), Real Player 9
Duration                                 : 30mn 8s
Bit rate                                 : 539 Kbps
Width                                    : 1 200 pixels
Height                                   : 432 pixels
Display aspect ratio                     : 2.778
Frame rate                               : 25.000 fps
Bits/(Pixel*Frame)                       : 0.042
Stream size                              : 116 MiB (87%)

Audio
ID                                       : 0
Format                                   : Cooker
Codec ID                                 : cook
Codec ID/Info                            : Based on G.722.1, Real Player 6
Duration                                 : 30mn 9s
Bit rate                                 : 64.1 Kbps
Channel(s)                               : 2 channels
Sampling rate                            : 44.1 KHz
Bit depth                                : 16 bits
Stream size                              : 13.8 MiB (10%)




 
http://bayimg.com/lAljaaaeI
 
http://bayimg.com/LaLJoAAEi
 
http://bayimg.com/laljpaAEi
 
http://bayimg.com/mALJaaaEi
